<svg width="311" height="191" viewBox="0 0 311 191" fill="none" xmlns="http://www.w3.org/2000/svg">
<path d="M18.2062 190.885L117.07 190.37L143.422 190.363L152.152 190.36L178.555 190.352L299.18 190.319C299.18 190.319 326.771 154.94 297.299 121.337C266.742 86.4971 251.885 114.871 242.493 65.8295C218.85 -57.6133 -14.8996 14.2341 46.411 119.279C68.487 157.102 2.95645 136.999 18.2062 190.885Z" fill="#EBF3FA"/>
<path d="M109.158 165.121L108.623 164.828C108.052 164.516 107.842 163.798 108.155 163.227L110.611 158.741C110.923 158.171 111.642 157.961 112.213 158.273L112.979 158.692C113.09 158.753 113.132 158.895 113.07 159.006C113.009 159.118 112.868 159.159 112.757 159.098L111.991 158.678C111.643 158.488 111.207 158.616 111.016 158.963L108.56 163.449C108.369 163.796 108.497 164.233 108.845 164.423L109.38 164.716C109.727 164.907 110.164 164.779 110.355 164.431L111.984 161.454C112.046 161.342 112.187 161.301 112.298 161.362C112.41 161.423 112.451 161.563 112.39 161.676L110.759 164.653C110.446 165.224 109.729 165.434 109.158 165.121Z" fill="#AFCDFB"/>
<path d="M106.879 169.831L105.921 169.307C105.031 168.819 104.732 167.648 105.253 166.694L108.946 159.951C109.007 159.84 109.148 159.798 109.26 159.859C109.371 159.921 109.413 160.061 109.352 160.173L105.659 166.916C105.259 167.646 105.476 168.537 106.143 168.901L107.101 169.426C107.767 169.792 108.634 169.494 109.034 168.765L113.24 161.083C113.64 160.354 113.423 159.462 112.756 159.098C112.645 159.037 112.603 158.896 112.665 158.784C112.726 158.673 112.867 158.631 112.979 158.692C113.868 159.18 114.167 160.352 113.646 161.305L109.439 168.987C108.917 169.939 107.769 170.319 106.879 169.831Z" fill="#AFCDFB"/>
<path d="M199.197 140.175H81.5652C78.6733 140.175 76.3289 137.831 76.3289 134.939V36.2086C76.3289 33.3168 78.6733 30.9729 81.5652 30.9729H199.197C202.089 30.9729 204.434 33.3168 204.434 36.2086V134.939C204.434 137.831 202.089 140.175 199.197 140.175ZM148.726 87.2397C148.235 87.2397 147.836 87.6379 147.836 88.129C147.836 88.6201 148.235 89.0182 148.726 89.0182H166.864C167.357 89.0182 167.755 88.6201 167.755 88.129C167.755 87.6379 167.357 87.2397 166.864 87.2397H148.726ZM132.186 87.2397C131.694 87.2397 131.296 87.6379 131.296 88.129C131.296 88.6201 131.694 89.0182 132.186 89.0182H145.424C145.915 89.0182 146.313 88.6201 146.313 88.129C146.313 87.6379 145.915 87.2397 145.424 87.2397H132.186ZM86.4811 52.7046V89.0182H122.795V52.7046H86.4811ZM171.347 81.7229C170.856 81.7229 170.457 82.121 170.457 82.6121C170.457 83.1032 170.856 83.5024 171.347 83.5024H180.608C181.1 83.5024 181.498 83.1032 181.498 82.6121C181.498 82.121 181.1 81.7229 180.608 81.7229H171.347ZM132.186 81.7229C131.694 81.7229 131.296 82.121 131.296 82.6121C131.296 83.1032 131.694 83.5024 132.186 83.5024H167.27C167.761 83.5024 168.159 83.1032 168.159 82.6121C168.159 82.121 167.761 81.7229 167.27 81.7229H132.186ZM155.071 74.4844C154.579 74.4844 154.181 74.8825 154.181 75.3736C154.181 75.8647 154.579 76.2629 155.071 76.2629H184.449C184.94 76.2629 185.338 75.8647 185.338 75.3736C185.338 74.8825 184.94 74.4844 184.449 74.4844H155.071ZM132.186 74.4844C131.694 74.4844 131.296 74.8825 131.296 75.3736C131.296 75.8647 131.694 76.2629 132.186 76.2629H150.148C150.64 76.2629 151.038 75.8647 151.038 75.3736C151.038 74.8825 150.64 74.4844 150.148 74.4844H132.186ZM171.347 69.7146C170.856 69.7146 170.457 70.1127 170.457 70.6038C170.457 71.0949 170.856 71.493 171.347 71.493H180.608C181.1 71.493 181.498 71.0949 181.498 70.6038C181.498 70.1127 181.1 69.7146 180.608 69.7146H171.347ZM148.726 69.7146C148.235 69.7146 147.836 70.1127 147.836 70.6038C147.836 71.0949 148.235 71.493 148.726 71.493H166.864C167.357 71.493 167.755 71.0949 167.755 70.6038C167.755 70.1127 167.357 69.7146 166.864 69.7146H148.726ZM132.186 69.7146C131.694 69.7146 131.296 70.1127 131.296 70.6038C131.296 71.0949 131.694 71.493 132.186 71.493H145.424C145.915 71.493 146.313 71.0949 146.313 70.6038C146.313 70.1127 145.915 69.7146 145.424 69.7146H132.186ZM171.347 64.1977C170.856 64.1977 170.457 64.5958 170.457 65.0869C170.457 65.578 170.856 65.9761 171.347 65.9761H180.608C181.1 65.9761 181.498 65.578 181.498 65.0869C181.498 64.5958 181.1 64.1977 180.608 64.1977H171.347ZM132.186 64.1977C131.694 64.1977 131.296 64.5958 131.296 65.0869C131.296 65.578 131.694 65.9761 132.186 65.9761H167.27C167.761 65.9761 168.159 65.578 168.159 65.0869C168.159 64.5958 167.761 64.1977 167.27 64.1977H132.186ZM132.668 52.6674C131.91 52.6674 131.296 53.2821 131.296 54.0389C131.296 54.7969 131.91 55.4116 132.668 55.4116H161.553C162.311 55.4116 162.925 54.7969 162.925 54.0389C162.925 53.2821 162.311 52.6674 161.553 52.6674H132.668ZM167.209 50.8266C166.451 50.8266 165.836 51.4413 165.836 52.1993C165.836 52.9572 166.451 53.5708 167.209 53.5708H196.093C196.851 53.5708 197.465 52.9572 197.465 52.1993C197.465 51.4413 196.851 50.8266 196.093 50.8266H167.209Z" fill="#F7FAFD"/>
<path d="M204.434 43.0905H76.3289V34.8818C76.3289 32.7228 78.0791 30.9728 80.238 30.9728H200.525C202.684 30.9728 204.434 32.7228 204.434 34.8818V43.0905Z" fill="#699DEE"/>
<path d="M81.5093 36.9578C81.5093 36.1583 82.1579 35.5097 82.9579 35.5097C83.758 35.5097 84.4066 36.1583 84.4066 36.9578C84.4066 37.7585 83.758 38.407 82.9579 38.407C82.1579 38.407 81.5093 37.7585 81.5093 36.9578Z" fill="#DDE7FE"/>
<path d="M87.5898 36.9578C87.5898 36.1583 88.2386 35.5097 89.0386 35.5097C89.8387 35.5097 90.4873 36.1583 90.4873 36.9578C90.4873 37.7585 89.8387 38.407 89.0386 38.407C88.2386 38.407 87.5898 37.7585 87.5898 36.9578Z" fill="#DDE7FE"/>
<path d="M93.6704 36.9578C93.6704 36.1583 94.319 35.5097 95.1185 35.5097C95.9191 35.5097 96.5677 36.1583 96.5677 36.9578C96.5677 37.7585 95.9191 38.407 95.1185 38.407C94.319 38.407 93.6704 37.7585 93.6704 36.9578Z" fill="#DDE7FE"/>
<path d="M86.481 89.0181H122.795V52.7046H86.481V89.0181Z" fill="#E2EDFC"/>
<path d="M161.553 55.4115H132.668C131.91 55.4115 131.295 54.7968 131.295 54.0389C131.295 53.282 131.91 52.6673 132.668 52.6673H161.553C162.311 52.6673 162.925 53.282 162.925 54.0389C162.925 54.7968 162.311 55.4115 161.553 55.4115Z" fill="#B9CAF7"/>
<path d="M196.093 53.5708H167.209C166.451 53.5708 165.836 52.9572 165.836 52.1992C165.836 51.4413 166.451 50.8266 167.209 50.8266H196.093C196.85 50.8266 197.465 51.4413 197.465 52.1992C197.465 52.9572 196.85 53.5708 196.093 53.5708Z" fill="#B9CAF7"/>
<path d="M167.27 65.9761H132.186C131.694 65.9761 131.295 65.578 131.295 65.0869C131.295 64.5959 131.694 64.1977 132.186 64.1977H167.27C167.761 64.1977 168.159 64.5959 168.159 65.0869C168.159 65.578 167.761 65.9761 167.27 65.9761Z" fill="#E5EEFC"/>
<path d="M180.608 65.9761H171.346C170.855 65.9761 170.457 65.578 170.457 65.0869C170.457 64.5959 170.855 64.1977 171.346 64.1977H180.608C181.099 64.1977 181.497 64.5959 181.497 65.0869C181.497 65.578 181.099 65.9761 180.608 65.9761Z" fill="#E5EEFC"/>
<path d="M145.423 71.493H132.186C131.694 71.493 131.295 71.0948 131.295 70.6037C131.295 70.1126 131.694 69.7145 132.186 69.7145H145.423C145.914 69.7145 146.313 70.1126 146.313 70.6037C146.313 71.0948 145.914 71.493 145.423 71.493Z" fill="#E5EEFC"/>
<path d="M166.864 71.493H148.726C148.235 71.493 147.836 71.0948 147.836 70.6037C147.836 70.1126 148.235 69.7145 148.726 69.7145H166.864C167.357 69.7145 167.755 70.1126 167.755 70.6037C167.755 71.0948 167.357 71.493 166.864 71.493Z" fill="#E5EEFC"/>
<path d="M180.608 71.493H171.346C170.855 71.493 170.457 71.0948 170.457 70.6037C170.457 70.1126 170.855 69.7145 171.346 69.7145H180.608C181.099 69.7145 181.497 70.1126 181.497 70.6037C181.497 71.0948 181.099 71.493 180.608 71.493Z" fill="#E5EEFC"/>
<path d="M150.147 76.2628H132.186C131.694 76.2628 131.295 75.8647 131.295 75.3736C131.295 74.8825 131.694 74.4844 132.186 74.4844H150.147C150.639 74.4844 151.038 74.8825 151.038 75.3736C151.038 75.8647 150.639 76.2628 150.147 76.2628Z" fill="#E5EEFC"/>
<path d="M184.449 76.2628H155.07C154.579 76.2628 154.181 75.8647 154.181 75.3736C154.181 74.8825 154.579 74.4844 155.07 74.4844H184.449C184.94 74.4844 185.338 74.8825 185.338 75.3736C185.338 75.8647 184.94 76.2628 184.449 76.2628Z" fill="#E5EEFC"/>
<path d="M167.27 83.5024H132.186C131.694 83.5024 131.295 83.1032 131.295 82.6121C131.295 82.121 131.694 81.7229 132.186 81.7229H167.27C167.761 81.7229 168.159 82.121 168.159 82.6121C168.159 83.1032 167.761 83.5024 167.27 83.5024Z" fill="#E5EEFC"/>
<path d="M180.608 83.5024H171.346C170.855 83.5024 170.457 83.1032 170.457 82.6121C170.457 82.121 170.855 81.7229 171.346 81.7229H180.608C181.099 81.7229 181.497 82.121 181.497 82.6121C181.497 83.1032 181.099 83.5024 180.608 83.5024Z" fill="#E5EEFC"/>
<path d="M145.423 89.0181H132.186C131.694 89.0181 131.295 88.62 131.295 88.1289C131.295 87.6378 131.694 87.2397 132.186 87.2397H145.423C145.914 87.2397 146.313 87.6378 146.313 88.1289C146.313 88.62 145.914 89.0181 145.423 89.0181Z" fill="#E5EEFC"/>
<path d="M166.864 89.0181H148.726C148.235 89.0181 147.836 88.62 147.836 88.1289C147.836 87.6378 148.235 87.2397 148.726 87.2397H166.864C167.357 87.2397 167.755 87.6378 167.755 88.1289C167.755 88.62 167.357 89.0181 166.864 89.0181Z" fill="#E5EEFC"/>
<path d="M108.552 72.1646L104.572 62.9541L100.625 72.1646H108.552ZM102.763 58.1187H106.513L116.645 81.3105H112.368L110.033 75.751H99.1437L96.7757 81.3105H92.6304L102.763 58.1187Z" fill="#BDD1F9"/>
<path d="M106.766 100.25H86.481V96.3331H106.766V100.25Z" fill="#F99746"/>
<path d="M106.766 104.165H86.481V100.25H106.766V104.165Z" fill="#ED7D2B"/>
<path d="M106.766 108.081H86.481V104.166H106.766V108.081Z" fill="#474FEA"/>
<path d="M121.712 98.5502H110.552C110.085 98.5502 109.705 98.1717 109.705 97.7047C109.705 97.2377 110.085 96.8592 110.552 96.8592H121.712C122.179 96.8592 122.558 97.2377 122.558 97.7047C122.558 98.1717 122.179 98.5502 121.712 98.5502Z" fill="#BDD1F9"/>
<path d="M117.952 101.531H110.552C110.085 101.531 109.705 101.152 109.705 100.685C109.705 100.218 110.085 99.8396 110.552 99.8396H117.952C118.419 99.8396 118.797 100.218 118.797 100.685C118.797 101.152 118.419 101.531 117.952 101.531Z" fill="#BDD1F9"/>
<path d="M106.766 124.583H86.481V116.581H106.766V124.583Z" fill="#F99746"/>
<path d="M106.766 128.33H86.481V122.607H106.766V128.33Z" fill="#B5453C"/>
<path d="M86.481 116.581L93.7581 122.694L86.481 128.33V116.581Z" fill="#474FEA"/>
<path d="M121.712 118.798H110.552C110.085 118.798 109.705 118.419 109.705 117.952C109.705 117.485 110.085 117.107 110.552 117.107H121.712C122.179 117.107 122.558 117.485 122.558 117.952C122.558 118.419 122.179 118.798 121.712 118.798Z" fill="#BDD1F9"/>
<path d="M117.952 121.779H110.552C110.085 121.779 109.705 121.401 109.705 120.934C109.705 120.467 110.085 120.087 110.552 120.087H117.952C118.419 120.087 118.797 120.467 118.797 120.934C118.797 121.401 118.419 121.779 117.952 121.779Z" fill="#BDD1F9"/>
<path d="M205.726 40.8626C205.726 40.8626 206.255 47.1582 204.821 47.063C203.386 46.9679 200.553 44.1963 194.838 44.6469C189.122 45.0976 182.129 46.3477 177.901 38.8676C173.674 31.3863 183.308 29.2338 183.308 29.2338L205.726 40.8626Z" fill="#233862"/>
<path d="M193.576 40.401L222.378 42.7689L222.976 41.4881L195.364 21.1061L167.472 17.8467L166.937 18.9941L193.576 40.401Z" fill="#2B478B"/>
<path d="M213.177 62.0911C213.006 61.4983 212.388 61.1549 211.796 61.3244C211.203 61.4951 210.86 62.113 211.03 62.7058C211.199 63.2986 211.817 63.641 212.41 63.4725C213.003 63.3019 213.346 62.684 213.177 62.0911Z" fill="#F99746"/>
<path d="M212.217 62.4006C213.371 62.3109 213.642 72.8219 213.642 72.8219C213.642 72.8219 212.888 73.1763 212.518 73.0931C212.148 73.01 211.958 71.5903 211.958 71.5903L211.923 73.0789C211.923 73.0789 210.656 73.1227 210.217 72.8142C210.217 72.8142 210.389 62.5439 212.217 62.4006Z" fill="#F99746"/>
<path d="M212.593 62.638L212.384 39.6736L212.235 39.5621L197.192 28.4342L196.652 29.1649L211.545 40.1822L211.882 62.5986L212.593 62.638Z" fill="#F99746"/>
<path d="M232.003 170.979H168.731V146.94H232.214C237.344 146.94 241.504 151.099 241.504 156.23V161.478C241.504 166.726 237.25 170.979 232.003 170.979Z" fill="#FCECDB"/>
<path d="M295.78 156.831V160.447C295.78 162.379 295.294 164.189 294.446 165.745C292.741 168.875 289.57 170.978 285.94 170.978H166.782C165.994 170.978 165.355 170.295 165.355 169.452V168.911C165.355 168.068 165.994 167.384 166.782 167.384H239.419C239.807 166.878 240.15 166.329 240.439 165.745C241.119 164.373 241.504 162.809 241.504 161.149V156.552C241.504 155.706 241.402 154.885 241.21 154.105C240.884 152.782 240.302 151.57 239.525 150.535H166.782C165.994 150.535 165.355 149.851 165.355 149.007V148.467C165.355 147.623 165.994 146.94 166.782 146.94H286.54C290.76 146.94 294.319 149.967 295.424 154.105C295.656 154.971 295.78 155.886 295.78 156.831Z" fill="#699DEE"/>
<path d="M295.424 154.105H241.21C240.884 152.782 240.302 151.57 239.525 150.535H166.782C165.994 150.535 165.355 149.851 165.355 149.007V148.467C165.355 147.623 165.994 146.94 166.782 146.94H286.54C290.76 146.94 294.319 149.967 295.424 154.105Z" fill="#548EE2"/>
<path d="M168.731 158.959L177.553 159.364L168.731 159.607V158.959Z" fill="#F4D2B8"/>
<path d="M168.731 162.731L189.722 163.135L168.731 163.379V162.731Z" fill="#F4D2B8"/>
<path d="M159.486 189.627H221.597V170.929H158.938C154.285 170.929 150.513 174.701 150.513 179.354V180.655C150.513 185.609 154.53 189.627 159.486 189.627Z" fill="#F99746"/>
<path d="M218.604 189.627H289.393V170.929H218.41C213.678 170.929 209.843 174.764 209.843 179.495V180.866C209.843 185.705 213.765 189.627 218.604 189.627Z" fill="#FCECDB"/>
<path d="M205.166 189.627H291.781C292.5 189.627 293.083 189.045 293.083 188.326V188.132C293.083 187.413 292.5 186.831 291.781 186.831H205.166C204.448 186.831 203.865 187.413 203.865 188.132V188.326C203.865 189.045 204.448 189.627 205.166 189.627Z" fill="#F99746"/>
<path d="M205.166 173.725H291.781C292.5 173.725 293.083 173.143 293.083 172.424V172.23C293.083 171.511 292.5 170.929 291.781 170.929H205.166C204.448 170.929 203.865 171.511 203.865 172.23V172.424C203.865 173.143 204.448 173.725 205.166 173.725Z" fill="#F99746"/>
<path d="M289.393 180.278L279.748 180.592L289.393 180.782V180.278Z" fill="#F4D2B8"/>
<path d="M289.393 175.974L266.448 176.29L289.393 176.479V175.974Z" fill="#F4D2B8"/>
<path d="M266.684 176.226C266.684 176.226 267.668 177.03 267.993 178.35C268.05 178.581 268.087 178.829 268.095 179.09C268.15 180.844 268.095 184.815 268.095 184.815L270.998 182.829L273.893 184.815V179.433C273.893 178.415 273.645 177.425 273.183 176.777C272.96 176.462 272.689 176.226 272.382 176.226H266.684Z" fill="#699DEE"/>
<path d="M266.684 176.226C266.684 176.226 267.668 177.03 267.993 178.35L273.811 178.429C273.811 178.429 273.583 176.538 272.382 176.226H266.684Z" fill="#568CDB"/>
<path d="M213.898 146.99H152.766V119.518H214.121C219.545 119.518 223.943 123.915 223.943 129.34V136.945C223.943 142.493 219.445 146.99 213.898 146.99Z" fill="#FCECDB"/>
<path d="M223.978 130.177V136.09C223.962 138.615 222.792 140.806 221.073 141.977C220.226 142.552 219.247 142.881 218.207 142.881H150.892C150.104 142.881 149.464 143.644 149.464 144.587V145.285C149.464 146.227 150.104 146.99 150.892 146.99H267.18C270.517 146.99 273.466 145.009 275.246 141.977C276.369 140.067 277.029 137.74 277.029 135.228V130.563C277.029 128.842 276.699 127.212 276.11 125.759C274.615 122.066 271.448 119.518 267.781 119.518H150.892C150.104 119.518 149.464 120.281 149.464 121.224V121.92C149.464 122.863 150.104 123.627 150.892 123.627H218.413C220.027 123.627 221.487 124.447 222.508 125.759C223.411 126.923 223.969 128.472 223.978 130.177Z" fill="#AFCDFB"/>
<path d="M149.464 144.587V145.285C149.464 146.227 150.104 146.99 150.892 146.99H267.18C270.517 146.99 273.466 145.009 275.246 141.977H221.073C220.226 142.552 219.247 142.881 218.207 142.881H150.892C150.104 142.881 149.464 143.644 149.464 144.587Z" fill="#A4C4F4"/>
<path d="M152.766 133.254L161.396 133.715L152.766 133.994V133.254Z" fill="#F4D2B8"/>
<path d="M152.766 126.932L173.295 127.393L152.766 127.671V126.932Z" fill="#F4D2B8"/>
<path d="M173.084 127.302C173.084 127.302 171.729 128.173 171.281 129.605C171.201 129.856 171.151 130.123 171.14 130.406C171.065 132.309 171.14 136.614 171.14 136.614L167.14 134.461L163.15 136.614V130.779C163.15 129.675 163.492 128.601 164.128 127.899C164.436 127.558 164.81 127.302 165.234 127.302H173.084Z" fill="#F99746"/>
<path d="M173.084 127.302C173.084 127.302 171.729 128.173 171.281 129.605L163.265 129.69C163.265 129.69 163.579 127.64 165.234 127.302H173.084Z" fill="#ED7D2B"/>
<path d="M70.8998 144.56C70.8998 144.56 83.4307 150.02 85.7053 149.92C87.9798 149.821 101.996 145.651 101.996 145.651L101.639 148.062C101.639 148.062 90.8225 154.283 87.0408 154.637C83.3178 154.983 70.5874 151.295 69.3584 150.516C68.1293 149.738 67.3281 145.348 70.8998 144.56Z" fill="#ED985F"/>
<path d="M69.017 124.476C69.017 124.476 64.3942 123.598 62.092 125.279C57.9214 128.325 57.6974 138.825 56.1343 140.389C54.5713 141.953 50.8034 141.286 50.4679 149.38C50.1326 157.473 51.968 158.15 49.7821 161.762C47.5961 165.375 50.7069 168.991 50.7069 168.991C50.7069 168.991 49.4327 166.997 49.9788 165.558C49.9788 165.558 50.5092 168.734 52.5275 169.479C54.5458 170.224 54.8444 170.769 55.1667 171.862C55.1667 171.862 72.3852 163.039 72.4039 156.78C72.4227 150.523 75.7922 144.324 74.1376 141.612C74.1376 141.612 74.8746 142.772 74.9649 144.062C74.9649 144.062 75.9577 142.16 74.2368 140.389C72.516 138.619 76.2555 134.953 75.7019 130.71C75.3217 127.796 73.2772 124.603 69.017 124.476Z" fill="#233862"/>
<path d="M72.4227 150.523C71.3222 151.286 69.9422 151.915 68.21 152.316C61.7163 153.816 59.2278 148.328 58.2932 144.56C59.1788 144.053 60.012 143.942 60.4933 143.884C60.9626 143.829 61.4562 143.792 61.8649 143.772C62.5941 143.213 63.6807 140.927 63.921 137.378L64.2264 137.46L69.3441 138.861C69.3441 138.861 69.1097 140.488 68.9947 142.026C68.9059 143.229 68.8919 144.379 69.1199 144.66C69.5192 144.747 69.7589 144.804 69.7589 144.804L69.7614 144.808C69.8301 144.921 71.3149 147.363 72.4227 150.523Z" fill="#FFB27D"/>
<path d="M69.3442 138.863C69.3442 138.863 69.109 140.488 68.995 142.027C66.0956 141.737 64.7501 138.976 64.2263 137.461L69.3442 138.863Z" fill="#ED985F"/>
<path d="M70.2099 140.39C70.2099 140.39 63.3279 140.01 63.6303 135.728C63.9327 131.446 63.2482 128.512 67.655 128.574C72.0618 128.635 72.7991 130.329 73.0458 131.784C73.2926 133.237 72.0078 140.377 70.2099 140.39Z" fill="#FFB27D"/>
<path d="M73.0122 129.388C72.042 128.023 71.2188 128.249 70.7411 128.604C67.1321 126.269 64.4921 129.149 64.4921 129.149C63.8119 132.188 61.4702 133.79 61.4702 133.79C61.4702 133.79 62.6675 134.653 65.6092 134.118C66.5077 133.954 67.3405 133.383 68.0645 132.671C66.7551 134.547 65.0627 135.844 65.0627 135.844C68.6273 134.496 70.357 129.798 70.5314 129.3C70.924 129.707 71.6924 130.585 71.8871 131.405C72.1514 132.52 73.2923 134.263 73.9519 134.234C73.9519 134.234 74.4671 131.434 73.0122 129.388Z" fill="#233862"/>
<path d="M56.3329 164.515C55.7114 161.338 53.685 148.645 55.7114 144.56C56.4392 143.093 59.2949 142.961 62.4281 143.089C63.403 143.719 67.1181 146.097 68.644 145.8C68.6604 145.797 68.69 145.79 68.7294 145.781C69.448 145.6 69.7192 145.096 69.1199 144.661C69.1187 144.659 70.6717 144.511 72.5987 144.874C73.6873 145.078 76.623 146.598 76.623 146.598C76.623 146.598 75.1446 149.269 72.9646 150.191C73.3353 153.507 72.784 154.969 69.344 162.629C66.4369 169.103 69.7361 174.931 69.7361 174.931C69.7361 174.931 52.6237 188.691 52.5284 181.685C52.457 176.411 57.1272 168.575 56.3329 164.515Z" fill="#F9DDBF"/>
<path d="M70.5842 189.893C71.5149 189.788 72.3527 189.278 72.873 188.499C72.9556 188.375 73.0439 188.242 73.1376 188.101C75.0855 185.152 75.8433 176.121 80.2248 166.5C81.292 164.159 85.1227 163.738 86.1673 161.09C86.1673 161.09 88.7382 152.508 81.2464 152.254C73.7545 152.002 61.1819 176.133 60.9834 178.664C60.791 181.115 56.0302 191.534 70.5842 189.893Z" fill="#DD6D22"/>
<path d="M100.361 189.695H89.698C89.698 189.695 89.2993 187.994 89.9994 186.837C90.6191 185.813 90.3816 185.23 89.9227 184.382C90.4058 184.58 91.0302 184.76 91.7182 184.72C92.2497 184.69 92.8119 184.449 93.3041 184.162C93.7635 184.686 95.7289 186.913 96.3425 187.354C97.0393 187.855 100.147 187.677 100.361 189.695Z" fill="#233862"/>
<path d="M86.4111 154.736C87.0533 159.55 89.5606 174.743 93.9835 182.155C95.4097 184.545 90.3909 185.885 90.3639 185.877C89.6907 185.701 88.5694 184.628 88.0525 184.162C84.4616 180.926 77.172 171.762 77.172 164.416C77.172 160.834 77.1091 153.991 79.7141 152.253C81.3183 151.182 86.1562 152.823 86.4111 154.736Z" fill="#ED7D2B"/>
<path d="M64.2258 189.694C64.2258 189.694 64.621 189.144 65.3101 188.101C66.1302 186.858 67.0375 184.414 68.1386 181.28C69.2953 177.991 70.6674 173.944 72.3819 169.735C72.9111 168.434 73.473 167.118 74.0707 165.806C75.1379 163.463 78.0738 163.787 79.1182 161.139C79.1182 161.139 83.1937 151.96 75.7019 151.707C68.21 151.454 53.974 176.261 53.1559 178.664C52.2603 181.293 47.8909 192.214 64.2258 189.694Z" fill="#F99746"/>
<path d="M92.5341 189.695H81.8703C81.8703 189.695 81.4717 187.994 82.1718 186.837C82.7915 185.813 82.5539 185.23 82.0951 184.382C82.5781 184.58 83.2029 184.76 83.891 184.72C84.4223 184.69 84.9841 184.449 85.4769 184.162C85.9357 184.686 87.901 186.913 88.515 187.354C89.2118 187.855 92.3186 187.677 92.5341 189.695Z" fill="#2B478B"/>
<path d="M68.1387 181.28C69.2953 177.991 70.6674 173.944 72.382 169.735C71.9342 166.544 70.9682 163.753 69.344 162.629C69.344 162.629 65.4034 174.836 68.1387 181.28Z" fill="#ED7D2B"/>
<path d="M80.1865 154.395C80.8286 159.208 81.7329 174.743 86.1561 182.155C87.5821 184.545 82.5633 185.885 82.5362 185.877C81.8631 185.701 80.7417 184.628 80.2249 184.162C76.6339 180.926 69.3442 171.762 69.3442 164.416C69.3442 160.834 73.5484 154.279 76.1532 152.54C77.7575 151.469 79.9314 152.482 80.1865 154.395Z" fill="#F99746"/>
<path d="M71.4983 137.926C71.4983 137.926 70.8478 137.669 69.0171 137.818C69.0171 137.818 69.1143 138.532 70.4645 138.602C71.2292 138.643 71.4983 137.926 71.4983 137.926Z" fill="white"/>
<path d="M103.333 140.607L101.122 136.618L96.3403 149.964L99.1612 152.993L103.333 140.607Z" fill="#163560"/>
<path d="M91.7905 142.943L87.3445 155.644L99.1613 152.993L103.333 140.607L91.7905 142.943Z" fill="#1C468A"/>
<path d="M87.5801 155.003L87.373 154.641L91.5794 142.622L91.7905 142.943L87.5801 155.003Z" fill="#EFDECE"/>
<path d="M91.5793 142.622L102.783 140.442L103.333 140.607L91.7904 142.943L91.5793 142.622Z" fill="#FCECDB"/>
<path d="M103.333 140.607L100.943 136.813L99.4182 141.097L102.783 140.442L103.333 140.607Z" fill="#EFDECE"/>
<path d="M95.2019 144.783C94.818 144.709 93.9933 144.398 93.1588 144.168C93.4081 143.975 93.6848 143.737 93.7625 143.493C93.9112 143.023 94.0108 142.871 93.5142 143.02C93.0177 143.17 91.2808 143.966 91.2808 143.966L91.2852 143.968C90.2986 144.256 89.3894 145.651 89.3894 145.651C89.3894 145.651 77.1718 149.945 75.7019 150.02C73.428 150.134 58.2931 144.56 58.2931 144.56C54.7214 145.348 55.5227 149.738 56.7517 150.516C57.9808 151.295 68.8714 155.257 75.3256 155.331C78.5947 155.369 90.4861 147.726 90.4861 147.726C90.4861 147.726 91.8758 147.091 92.9684 147.29C94.06 147.488 96.592 147.29 97.1378 146.396C97.6836 145.503 95.8472 144.907 95.2019 144.783Z" fill="#FFB27D"/>
<path d="M66.0906 147.309C66.0906 147.309 64.737 151.594 60.0883 152.569C60.0883 152.569 52.4113 150.204 56.2337 144.974C56.2337 144.974 60.013 142.166 66.0906 147.309Z" fill="#F9DDBF"/>
<path d="M103.135 145.106H103.134C103.137 144.988 103.125 144.871 103.093 144.758C103.093 144.758 101.997 143.025 101.638 142.954C100.547 142.739 100.547 144.177 100.779 145.106C100.94 145.751 101.35 146.372 101.682 146.707L101.638 148.062C103.485 147.048 103.135 145.106 103.135 145.106Z" fill="#FFB27D"/>
<path d="M38.993 122.486C39.4296 111.685 30.3764 106.887 21.1197 106.887C11.863 106.887 1.78943 109.285 0.916615 123.647C0.355193 132.887 5.28068 138.573 19.4639 138.573C24.2473 138.573 27.9649 137.818 30.8123 136.473L37.9021 142.773L34.4181 134.064C37.5044 131.194 38.8048 127.147 38.993 122.486Z" fill="#EBF3FA"/>
<path d="M224.41 90.0703C224.809 80.196 216.533 75.8089 208.07 75.8089C199.607 75.8089 190.399 78.0019 189.6 91.1324C189.087 99.5794 193.59 104.777 206.557 104.777C210.929 104.777 214.328 104.087 216.931 102.856L223.412 108.616L220.227 100.656C223.049 98.0317 224.238 94.3316 224.41 90.0703Z" fill="#91B5F8"/>
<path d="M221.776 142.17C223.784 145.722 226.332 147.107 226.332 147.107L236.97 147.182C236.97 147.182 220.244 139.46 221.776 142.17Z" fill="#233862"/>
<path d="M229.754 169.606C230.028 169.925 230.061 170.28 229.921 170.659L229.919 170.664C229.66 171.363 228.816 172.141 227.836 172.915C227.712 173.015 227.6 173.106 227.504 173.19C227.478 173.212 227.453 173.234 227.428 173.255C227.409 173.273 227.39 173.29 227.37 173.307C226.457 174.138 226.797 174.332 225.155 176.019C223.28 177.941 221.999 177.967 221.636 177.788C221.33 177.636 221.963 176.613 222.665 175.465C222.699 175.409 222.732 175.353 222.767 175.298C222.861 175.144 222.953 174.989 223.046 174.836C223.869 173.453 223.665 172.8 223.487 170.732C223.342 169.052 220.94 161.334 220.94 161.334L224.509 160.744C224.509 160.744 225.54 166.884 226.715 167.838C227.344 168.346 228.053 168.357 228.658 168.734C228.7 168.76 228.742 168.788 228.784 168.815C229.127 169.047 229.478 169.285 229.754 169.606Z" fill="#FFB27D"/>
<path d="M229.754 169.606C230.028 169.925 230.061 170.281 229.921 170.659L229.919 170.664C229.603 171.362 228.78 172.136 227.833 172.909C227.71 173.009 227.6 173.102 227.504 173.19C227.478 173.212 227.453 173.234 227.428 173.256C227.409 173.273 227.39 173.291 227.37 173.307C226.457 174.138 226.797 174.332 225.155 176.019C223.28 177.941 221.999 177.967 221.636 177.788C221.33 177.636 221.963 176.613 222.665 175.465C223.028 175.335 224.715 174.663 225.998 173.046C227.128 171.624 227.888 169.793 228.658 168.734C228.701 168.76 228.742 168.788 228.784 168.815C229.127 169.047 229.478 169.285 229.754 169.606Z" fill="#233862"/>
<path d="M201.026 167.176C200.799 168.276 199.232 168.081 197.483 167.64C195.734 167.199 196.146 167.711 193.655 167.418C191.163 167.124 190.414 166.189 190.34 165.818C190.275 165.489 191.507 165.38 192.83 165.238C192.997 165.221 193.163 165.201 193.331 165.181C194.825 165.005 195.924 164.049 197.285 163.268C198.574 162.529 200.512 159.491 200.512 159.491L203.93 159.785C203.93 159.785 202.116 162.498 201.414 163.679C201 164.373 201.016 165.295 201.062 166.007C201.086 166.394 201.107 166.789 201.026 167.176Z" fill="#FFB27D"/>
<path d="M197.483 167.64C195.734 167.199 196.146 167.711 193.655 167.418C191.163 167.124 190.414 166.189 190.34 165.818C190.275 165.489 191.507 165.38 192.83 165.238L192.843 165.263C192.843 165.263 194.33 166.334 196.406 166.399C198.097 166.452 199.893 165.98 201.061 166.007C201.086 166.394 201.107 166.789 201.026 167.176C200.799 168.276 199.232 168.081 197.483 167.64Z" fill="#233862"/>
<path d="M214.288 145.401L217.424 154.026L221.519 165.289C221.519 165.289 222.651 165.406 223.738 165.101C224.739 164.82 225.89 164.073 225.89 164.073C225.89 164.073 224.816 152.004 222.702 145.065C222.161 143.283 221.551 141.842 220.87 141.028C217.546 137.044 214.288 145.401 214.288 145.401Z" fill="#233862"/>
<path d="M217.635 131.761C219.734 131.1 225.701 132.009 231.694 133.226L232.966 131.164L245.935 130.243C245.935 130.243 250.145 139.757 247.761 145.785C247.41 146.671 246.556 147.039 245.39 147.05L245.389 147.051C245.389 147.051 237.653 147.186 235.147 147.168C228.702 147.123 221.536 142.641 220.607 142.448C219.085 142.133 218.454 145.176 216.908 148.365C215.362 151.554 202.485 162.434 202.485 162.434C202.485 162.434 200.518 162.441 199.707 162.13C198.836 161.795 198.52 161.368 198.52 161.368C198.52 161.368 212.9 133.252 217.635 131.761Z" fill="#2B478B"/>
<path d="M233.167 113.314C237.766 115.887 247.092 121.221 247.141 121.189C247.141 121.189 250.573 122.51 252.536 121.227C255.805 119.089 257.591 113.284 251.675 108.236C248.724 105.719 246.619 105.096 246.327 101.107C246.169 98.944 243.263 91.7854 238.346 92.411C237.936 92.4635 237.522 92.5007 237.108 92.4843C236.535 92.4613 235.587 92.5379 234.611 93.1099C231.82 94.7451 226.255 112.281 233.167 113.314Z" fill="#233862"/>
<path d="M237.051 111.178C237.032 111.191 239.318 111.989 240.854 111.321C242.3 110.694 243.408 108.331 243.387 108.329C242.731 108.294 242.016 107.716 241.489 103.95L241.209 104.048L236.502 105.704C236.502 105.704 236.831 107.214 237.041 108.649C237.218 109.854 237.309 111.009 237.051 111.178Z" fill="#FFB27D"/>
<path d="M236.502 105.704C236.502 105.704 236.702 106.762 236.981 108.274C239.681 107.807 240.818 105.504 241.209 104.048L236.502 105.704Z" fill="#ED975D"/>
<path d="M235.792 107.195C235.792 107.195 242.221 106.378 241.651 102.383C241.081 98.3861 241.526 95.5905 237.398 95.9427C233.269 96.2949 232.691 97.9333 232.556 99.3136C232.423 100.694 234.105 107.305 235.792 107.195Z" fill="#FFB27D"/>
<path d="M232.807 97.1272C232.807 97.1272 236.893 100.699 239.687 101.005C242.482 101.31 243.547 100.419 243.547 100.419C243.547 100.419 241.909 99.0391 240.932 96.8242C240.644 96.1702 240.03 95.7196 239.319 95.6528C237.323 95.4669 233.538 95.3608 232.807 97.1272Z" fill="#233862"/>
<path d="M235.379 96.8275C235.379 96.8275 233.993 98.1477 233.554 99.132C233.129 100.08 232.987 102.356 233.314 103.263C233.314 103.263 231.2 99.0806 232.428 97.0649C233.73 94.9266 235.379 96.8275 235.379 96.8275Z" fill="#233862"/>
<path d="M231.577 120.6C231.679 133.603 231.558 130.886 232.971 132.129C233.312 132.429 234.273 132.613 235.541 132.705C239.526 132.998 246.539 132.391 246.81 131.656C247.748 129.113 247.104 128.317 247.899 124.418C247.981 124.004 248.084 123.555 248.203 123.068C248.862 120.391 249.492 119.483 247.252 115.161C245.222 111.245 243.106 108.065 242.913 108.177C237.461 111.362 237.042 108.65 237.042 108.65C237.042 108.65 231.526 114.259 231.577 120.6Z" fill="#F9DDBF"/>
<path d="M217.424 154.026L221.519 165.289C221.519 165.289 222.651 165.406 223.738 165.101C224.739 164.82 225.89 164.073 225.89 164.073C225.89 164.073 224.816 152.004 222.703 145.065L217.424 154.026Z" fill="#2B478B"/>
<path d="M237.041 108.649C237.041 108.649 231.448 109.557 230.774 111.957C230.102 114.359 226.141 128.473 226.141 128.473C226.141 128.473 228.977 129.003 230.298 127.701C231.621 126.398 234.95 115.559 234.95 115.559L237.041 108.649Z" fill="#F9DDBF"/>
<path d="M235.541 132.705C239.525 132.998 246.538 132.391 246.81 131.656C247.748 129.113 247.104 128.317 247.899 124.418L246.015 118.99C246.015 118.99 246.289 125.022 244.5 126.596C242.713 128.169 237.198 129.606 236.325 130.925C235.903 131.557 235.624 132.194 235.541 132.705Z" fill="#F2CCAA"/>
<path d="M240.127 130.201C240.127 130.201 236.199 129.298 235.563 129.642C234.925 129.987 233.365 131.247 233.169 131.689C232.971 132.13 234.584 131.363 235.107 131.226C235.447 131.137 236.335 131.454 236.776 131.603C238.628 132.236 239.767 131.925 239.767 131.925L240.127 130.201Z" fill="#FFB27D"/>
<path d="M242.916 108.174C242.916 108.174 248.194 108.537 250.005 111.1C252.553 114.707 257.55 130.04 254.61 132.059C251.3 134.334 239.61 132.555 239.61 132.555C239.61 132.555 239.233 130.733 239.781 129.855C240.329 128.979 249.144 127.619 249.553 127.215C249.962 126.813 244.529 119.256 244.538 118.037C244.547 116.818 242.916 108.174 242.916 108.174Z" fill="#F9DDBF"/>
<path d="M235.365 130.736C235.365 130.736 234.532 131.792 234.262 131.918C233.991 132.043 233.816 132.01 233.816 132.01L234.379 131.015L235.365 130.736Z" fill="#FFB27D"/>
<path d="M235.563 129.642L233.159 130.79C233.159 130.79 233.259 130.957 233.555 130.945C233.849 130.934 234.596 130.667 234.596 130.667L235.563 129.642Z" fill="#FFB27D"/>
<path d="M234.774 133.633L215.822 133.5L210.22 119.282L229.144 119.416L234.774 133.633Z" fill="#F99746"/>
<path d="M215.603 132.946L240.631 133.123L240.627 133.675L215.822 133.5L215.603 132.946Z" fill="#ED7D2B"/>
<path d="M220.656 126.445C220.516 125.945 220.808 125.544 221.306 125.547C221.805 125.55 222.322 125.958 222.461 126.457C222.6 126.957 222.309 127.359 221.811 127.355C221.312 127.352 220.795 126.944 220.656 126.445Z" fill="white"/>
<path d="M177.177 178.384L177.175 189.832L119.59 189.82L119.593 178.373L177.177 178.384Z" fill="#C65447"/>
<path d="M119.589 189.821L111.126 186.201L106.204 184.095L111.242 181.942L119.593 178.373C119.593 178.373 120.707 181.16 120.723 183.782C120.75 187.895 119.589 189.821 119.589 189.821Z" fill="#FCECDB"/>
<path d="M183.871 182.183V185.802C183.87 188.029 182.065 189.832 179.839 189.832H177.175L177.177 178.384L180.075 178.385C182.172 178.385 183.872 180.086 183.871 182.183Z" fill="#FCECDB"/>
<path d="M111.242 181.942C111.452 183.098 111.633 184.87 111.126 186.201L106.204 184.095L111.242 181.942Z" fill="#2B478B"/>
<path d="M131.97 118.768C131.97 118.768 133.002 123.244 136.009 123.244C138.586 123.244 142.121 117.417 142.121 117.417L131.97 118.768Z" fill="#F99746"/>
<path d="M166.49 184.873L164.558 186.202C164.558 186.202 155.268 176.299 153.025 166.807C152.626 165.113 152.464 163.441 152.634 161.855C152.634 161.855 152.499 161.425 152.261 160.665C152.252 160.631 152.241 160.598 152.23 160.564C152.126 160.23 152.002 159.837 151.863 159.393C151.413 157.959 150.794 155.996 150.089 153.762C148.465 148.619 144.752 137.022 143.165 132.197L154.57 128.071C154.57 128.071 155.866 131.025 157.728 139.054C158.015 140.102 158.301 141.261 158.57 142.523C158.874 143.954 159.158 145.518 159.394 147.208C159.794 150.069 160.061 153.289 160.077 156.822C160.084 158.258 160.049 159.749 159.964 161.285C159.901 162.412 160.069 163.915 160.384 165.623C161.82 173.435 166.49 184.873 166.49 184.873Z" fill="#2B478B"/>
<path d="M172.567 189.645H163.346C163.346 189.645 163.001 188.175 163.606 187.175C164.142 186.289 163.937 185.784 163.54 185.052C163.958 185.222 164.498 185.379 165.093 185.344C165.553 185.317 166.038 185.11 166.465 184.861C166.861 185.314 168.561 187.24 169.092 187.622C169.695 188.055 172.381 187.901 172.567 189.645Z" fill="#233862"/>
<path d="M159.394 147.208L152.23 160.564C152.126 160.23 152.002 159.837 151.863 159.393C151.413 157.959 150.794 155.996 150.089 153.762C148.465 148.619 144.752 137.022 143.165 132.197L154.57 128.07C154.57 128.07 155.867 131.025 157.728 139.054C158.015 140.102 158.301 141.261 158.57 142.523C158.874 143.954 159.158 145.518 159.394 147.208Z" fill="#233862"/>
<path d="M142.979 186.759C142.979 186.759 142.341 188.325 142.942 189.645H147.958C147.958 189.645 148.062 188.455 146.242 187.074C144.863 186.028 142.979 186.759 142.979 186.759Z" fill="#233862"/>
<path d="M148.438 84.804C148.441 84.5535 148.569 81.8618 152.66 81.6222C152.66 81.6222 150.653 81.911 150.326 82.8046C150.326 82.8046 151.67 81.678 152.794 82.0029C153.92 82.3277 154.622 84.2669 154.645 84.91C154.667 85.5532 154.096 87.6422 153.393 87.8358C153.126 87.9091 152.816 87.8982 152.534 87.8577C152.73 88.1475 152.922 88.4669 153.107 88.8257C154.822 92.1397 153.343 96.0433 151.951 95.7141C151.058 95.503 150.516 97.0507 150.516 97.0507L141.932 89.6689C141.932 89.6689 144.94 83.0441 148.438 84.804Z" fill="#2C3A64"/>
<path d="M143.042 107.232C143.994 107.893 145.187 108.438 146.685 108.783C152.301 110.08 154.452 105.335 155.261 102.076C154.495 101.639 153.774 101.542 153.359 101.492C152.953 101.444 152.525 101.412 152.172 101.395C151.542 100.913 150.601 98.9351 150.395 95.866L150.13 95.9371L145.705 97.149C145.705 97.149 145.907 98.5556 146.007 99.8856C146.083 100.926 146.095 101.92 145.898 102.164C145.553 102.238 145.346 102.287 145.346 102.287L145.344 102.292C145.284 102.389 144.001 104.5 143.042 107.232Z" fill="#FFB27D"/>
<path d="M145.705 97.149C145.705 97.149 145.908 98.5545 146.006 99.8856C148.513 99.6351 149.677 97.2475 150.13 95.9382L145.705 97.149Z" fill="#ED985F"/>
<path d="M145.653 99.2611C145.653 99.2611 151.426 97.7769 150.446 94.1971C149.467 90.6162 149.552 88.013 145.826 88.8082C142.099 89.6044 141.759 91.1652 141.796 92.4405C141.832 93.7147 144.126 99.5543 145.653 99.2611Z" fill="#FFB27D"/>
<path d="M141.419 90.4029C142.012 89.0827 142.748 89.1341 143.213 89.3551C145.88 86.7651 148.605 88.7623 148.605 88.7623C149.695 91.2254 151.951 92.1878 151.951 92.1878C151.951 92.1878 151.082 93.123 148.496 93.1646C147.706 93.1777 146.904 92.8343 146.169 92.3519C147.597 93.7224 149.251 94.5372 149.251 94.5372C146 93.9958 143.74 90.3022 143.508 89.9096C143.245 90.3208 142.741 91.1958 142.714 91.9243C142.678 92.9141 143.064 94.8259 142.5 94.9124C142.5 94.9124 140.531 92.3836 141.419 90.4029Z" fill="#2C3A64"/>
<path d="M143.993 101.989C143.993 101.989 153.688 99.6352 157.903 103.112L155.797 132.495L136.835 127.913C136.835 127.913 137.369 126.055 141.005 121.111C144.64 116.166 143.059 108.915 143.993 101.989Z" fill="#FFB27D"/>
<path d="M149.644 129.223C149.644 129.223 149.633 129.323 149.614 129.513C149.605 129.594 149.594 129.694 149.582 129.808C149.5 130.57 149.346 132.031 149.147 133.931C148.626 138.914 147.81 146.917 147.253 153.234C146.818 158.174 146.541 162.083 146.691 162.711C147.14 164.599 146.691 187.179 146.691 187.179C145.079 187.952 142.636 187.179 142.636 187.179C142.636 187.179 138.344 166.832 138.944 164.003C139.545 161.175 138.543 158.761 138.543 158.761C135.209 143.24 135.574 134.636 136.236 130.518C136.429 129.321 136.646 128.502 136.806 128.004C136.942 127.579 137.035 127.386 137.035 127.386C144.387 125.407 149.644 129.223 149.644 129.223Z" fill="#2B478B"/>
<path d="M159.21 111.493C158.742 115.028 156.87 119.353 156.201 121.681C156.201 121.681 157.319 129.765 156.252 131.984C156.13 132.237 155.98 132.414 155.797 132.494C151.843 134.216 136.446 132.544 135.796 127.577C135.56 125.773 141.661 119.424 142.016 118.654C142.164 118.335 142.32 117.303 141.605 115.162C140.591 118.288 134.996 117.389 134.996 117.389C135.652 116.266 137.289 108.49 139.116 104.98C140.49 102.342 144.157 101.961 144.157 101.961C144.157 101.961 145.684 104.381 149.375 104.038C153.068 103.694 153.742 101.434 153.742 101.434C153.742 101.434 157.016 101.87 158.026 102.684C158.201 102.825 159.824 106.862 159.21 111.493Z" fill="#F99746"/>
<path d="M156.201 121.681C156.201 121.681 157.319 129.765 156.252 131.984C153.372 130.538 151.101 126.627 151.625 122.269C152.012 119.049 152.589 118.314 154.311 116.471C155.578 115.117 158.505 115.041 158.275 115.685C157.593 117.603 156.555 120.451 156.201 121.681Z" fill="#ED7D2B"/>
<path d="M144.177 112.123L150.779 122.713H139.546L133.256 112.351L144.177 112.123Z" fill="#1C468A"/>
<path d="M150.435 122.182L150.549 121.812L144.302 111.789L144.177 112.123L150.435 122.182Z" fill="#EFDECE"/>
<path d="M144.302 111.789L133.72 112.09L133.256 112.351L144.177 112.122L144.302 111.789Z" fill="#FCECDB"/>
<path d="M133.256 112.351L127.319 109.138L134.239 120.005L139.546 122.713L133.256 112.351Z" fill="#163560"/>
<path d="M164.67 119.773C164.035 120.064 162.403 121.986 161.82 122.182C159.2 123.058 148.053 120.726 148.053 120.726L148.398 118.774C148.398 118.774 159.339 119.063 160.542 118.742C160.769 118.681 161.951 116.832 162.406 116.566L164.67 119.773Z" fill="#FFB27D"/>
<path d="M148.399 118.772C148.399 118.772 147.08 117.699 146.188 117.942C145.297 118.185 143.984 119.313 143.498 119.58C143.011 119.846 141.687 120.801 142.358 121.379C143.028 121.956 145.116 121.46 145.944 121.018C146.771 120.575 148.054 120.726 148.054 120.726L148.399 118.772Z" fill="#FFB27D"/>
<path d="M146.441 117.907C146.441 117.907 144.837 117.716 144.399 117.725C143.961 117.733 144.08 117.83 144.322 118.169C144.564 118.509 145.398 118.639 145.437 118.758C145.475 118.876 146.441 117.907 146.441 117.907Z" fill="#FFB27D"/>
<path d="M153.743 101.434C153.743 101.434 158.498 101.999 159.807 104.038C161.462 106.617 165.369 116.885 165.243 119.473C165.243 119.473 162.387 124.334 152.592 123.556C152.592 123.556 151.573 119.956 153.633 118.768C153.633 118.768 158.664 117.874 159.243 117.363L155.142 109.909L153.743 101.434Z" fill="#F99746"/>
<path d="M134.777 116.223C134.629 115.624 133.323 115.998 132.882 116.343C132.775 116.426 132.66 116.57 132.548 116.736C132.534 116.636 132.522 116.54 132.515 116.466C132.491 116.184 132.163 115.679 132.082 116.057C132 116.435 131.866 118.02 131.866 118.02C131.85 119.297 132.671 119.825 133.199 119.409C133.726 118.993 134.923 116.822 134.777 116.223Z" fill="#FFB27D"/>
<path d="M309.322 190.666H9.80653C9.59434 190.666 9.42065 190.493 9.42065 190.281V190.028C9.42065 189.815 9.59434 189.642 9.80653 189.642H309.322C309.534 189.642 309.708 189.815 309.708 190.028V190.281C309.708 190.493 309.534 190.666 309.322 190.666Z" fill="#2E3552"/>
</svg>
