<svg width="23" height="23" viewBox="0 0 23 23" fill="none" xmlns="http://www.w3.org/2000/svg">
<path d="M14.8804 5.06348C16.1678 5.06348 16.8115 5.06348 17.2739 5.37245C17.4741 5.50621 17.646 5.67808 17.7797 5.87826C18.0887 6.34067 18.0887 6.98439 18.0887 8.27181V16.9801C18.0887 18.7086 18.0887 19.5729 17.5517 20.1098C17.0148 20.6468 16.1505 20.6468 14.422 20.6468H8.92204C7.19355 20.6468 6.32931 20.6468 5.79234 20.1098C5.25537 19.5729 5.25537 18.7086 5.25537 16.9801V8.27181C5.25537 6.98439 5.25537 6.34067 5.56434 5.87826C5.6981 5.67808 5.86998 5.50621 6.07016 5.37245C6.53257 5.06348 7.17628 5.06348 8.4637 5.06348" stroke="#0F4C8D"/>
<path d="M8.92212 5.06331C8.92212 4.05079 9.74293 3.22998 10.7555 3.22998H12.5888C13.6013 3.22998 14.4221 4.05079 14.4221 5.06331C14.4221 6.07584 13.6013 6.89665 12.5888 6.89665H10.7555C9.74293 6.89665 8.92212 6.07584 8.92212 5.06331Z" stroke="#0F4C8D"/>
<path d="M8.92212 11.48L14.4221 11.48" stroke="#0F4C8D" stroke-linecap="round"/>
<path d="M8.92212 15.1465L12.5888 15.1465" stroke="#0F4C8D" stroke-linecap="round"/>
</svg>
