<svg width="23" height="23" viewBox="0 0 23 23" fill="none" xmlns="http://www.w3.org/2000/svg">
<path d="M18.0887 14.6597V7.65967H5.25537V14.6597C5.25537 16.5453 5.25537 17.4881 5.84116 18.0739C6.42694 18.6597 7.36975 18.6597 9.25537 18.6597H14.0887C15.9743 18.6597 16.9171 18.6597 17.5029 18.0739C18.0887 17.4881 18.0887 16.5453 18.0887 14.6597Z" stroke="#0F4C8D" stroke-width="1.2"/>
<path d="M16.5888 3.99268H6.75545C5.5093 3.99268 4.88622 3.99268 4.42212 4.26062C4.11808 4.43616 3.8656 4.68864 3.69007 4.99268C3.42212 5.45678 3.42212 6.07985 3.42212 7.32601C3.42212 7.45062 3.42212 7.51293 3.44891 7.55934C3.46647 7.58975 3.49172 7.61499 3.52212 7.63255C3.56853 7.65934 3.63084 7.65934 3.75545 7.65934H5.25545H18.0888H19.5888C19.7134 7.65934 19.7757 7.65934 19.8221 7.63255C19.8525 7.61499 19.8778 7.58975 19.8953 7.55934C19.9221 7.51293 19.9221 7.45062 19.9221 7.32601C19.9221 6.07985 19.9221 5.45678 19.6542 4.99268C19.4786 4.68864 19.2262 4.43616 18.9221 4.26062C18.458 3.99268 17.8349 3.99268 16.5888 3.99268Z" stroke="#0F4C8D" stroke-width="1.2"/>
<path d="M9.83887 14.9927H13.5055" stroke="#0F4C8D" stroke-opacity="0.25" stroke-width="1.2" stroke-linecap="round"/>
</svg>
