<svg width="310" height="200" viewBox="0 0 310 200" fill="none" xmlns="http://www.w3.org/2000/svg">
<path d="M255 185H55V14.9999H255V185Z" fill="white"/>
<path d="M234.603 185H81.436C81.1696 185 80.9537 184.784 80.9537 184.518V184.46C80.9537 184.193 81.1696 183.977 81.436 183.977H234.603C234.87 183.977 235.085 184.193 235.085 184.46V184.518C235.085 184.784 234.87 185 234.603 185Z" fill="#50BFA5"/>
<path d="M118.012 54.878L117.381 53.41L115.815 53.097C115.636 53.061 115.576 52.836 115.713 52.716L116.915 51.663L116.728 50.076C116.707 49.895 116.902 49.769 117.058 49.862L118.431 50.679L119.883 50.011C120.048 49.935 120.229 50.082 120.189 50.259L119.836 51.818L120.919 52.992C121.043 53.126 120.959 53.343 120.778 53.359L119.187 53.505L118.405 54.899C118.316 55.058 118.084 55.045 118.012 54.878Z" fill="#F47458"/>
<path d="M191.734 33.938L192.224 33.312L193.752 34.509L195.045 32.238L195.735 32.631L193.987 35.702L191.734 33.938Z" fill="#50BFA5"/>
<path d="M132.103 35.743C131.887 37.885 129.975 39.446 127.833 39.23C125.692 39.013 124.131 37.101 124.347 34.959C124.563 32.817 126.474 31.256 128.616 31.472C130.758 31.689 132.319 33.601 132.103 35.743Z" fill="#F7CC7F"/>
<path d="M126.089 35.756C125.974 36.901 126.808 37.924 127.954 38.039C129.099 38.155 130.121 37.32 130.236 36.175L126.089 35.756Z" fill="#EFEFEF"/>
<path d="M204.474 47.642L205.53 46.507L204.371 45.74L203.315 46.874L204.474 47.642ZM201.024 48.147L202.203 46.884L201.548 46.451C201.405 46.356 201.366 46.163 201.461 46.02C201.555 45.877 201.748 45.837 201.892 45.932L202.646 46.432L203.702 45.297L203.003 44.834C202.86 44.74 202.82 44.547 202.915 44.403C203.01 44.26 203.203 44.221 203.346 44.316L204.146 44.845L205.367 43.548C205.471 43.438 205.639 43.419 205.765 43.502L205.887 43.583C206.047 43.689 206.074 43.913 205.943 44.054L204.803 45.28L205.962 46.047L207.184 44.751C207.288 44.64 207.456 44.621 207.582 44.705L207.715 44.793C207.875 44.899 207.902 45.123 207.771 45.264L206.631 46.49L207.285 46.923C207.429 47.018 207.468 47.211 207.373 47.354C207.278 47.497 207.085 47.537 206.942 47.442L206.187 46.942L205.143 48.084L205.842 48.547C205.985 48.642 206.025 48.834 205.93 48.978C205.835 49.121 205.642 49.16 205.499 49.065L204.699 48.536L203.449 49.875C203.345 49.986 203.176 50.006 203.05 49.923L202.907 49.828C202.746 49.722 202.72 49.497 202.851 49.356L204.031 48.094L202.872 47.327L201.621 48.666C201.517 48.777 201.349 48.797 201.222 48.713L201.079 48.618C200.919 48.512 200.892 48.287 201.024 48.147Z" fill="#F48C7F"/>
<path d="M160.597 38.54C160.597 38.54 161.332 37.259 163.046 37.067C164.575 36.895 165.765 37.992 165.924 39.407C166.108 41.045 164.889 43.144 161.35 45.247C157.433 43.981 155.779 42.205 155.595 40.567C155.436 39.152 156.353 37.819 157.882 37.647C159.597 37.454 160.597 38.54 160.597 38.54Z" fill="#F48C7F"/>
<path d="M148.032 40.606C149.544 40.68 150.763 40.664 151.961 40.59C152.356 40.566 153.048 40.641 153.3 40.285C153.431 40.1 153.441 39.885 153.271 39.715C152.96 39.405 152.373 39.571 151.975 39.595C150.762 39.668 149.387 39.694 147.995 39.64C147.733 39.629 147.521 39.895 147.53 40.142C147.541 40.422 147.77 40.593 148.032 40.606Z" fill="#F48C7F"/>
<path d="M168.467 42.497C169.048 42.471 169.628 42.435 170.208 42.4C170.764 42.367 171.426 42.426 171.94 42.205C172.32 42.042 172.325 41.525 171.908 41.402C171.368 41.244 170.727 41.379 170.17 41.414C169.59 41.45 169.01 41.485 168.43 41.53C167.811 41.579 167.843 42.524 168.467 42.497Z" fill="#F48C7F"/>
<path d="M153.832 47.889C154.489 46.625 155.354 46.196 156.004 45.688C156.352 45.417 156.12 44.892 155.68 44.988C154.475 45.25 153.506 46.4 152.975 47.449C152.695 48.002 153.545 48.441 153.832 47.889Z" fill="#F48C7F"/>
<path d="M160.699 50.566C160.642 49.968 160.699 49.377 160.888 48.805C161.003 48.455 161.639 47.46 160.947 47.32C160.296 47.189 160.011 48.264 159.883 48.719C159.713 49.328 159.662 49.975 159.729 50.603C159.794 51.222 160.759 51.19 160.699 50.566Z" fill="#F48C7F"/>
<path d="M165.411 46.631C165.747 46.846 166.083 47.062 166.419 47.278C166.754 47.493 167.082 47.816 167.502 47.705C167.738 47.642 167.818 47.397 167.778 47.183C167.706 46.794 167.178 46.592 166.871 46.397C166.534 46.183 166.197 45.97 165.86 45.756C165.635 45.614 165.311 45.748 165.198 45.969C165.067 46.224 165.187 46.487 165.411 46.631Z" fill="#F48C7F"/>
<path d="M156.403 35.211C155.001 32.316 155.024 32.3 154.762 32.07C154.492 31.834 154.035 32.031 154.055 32.401C154.075 32.766 154.078 32.706 155.564 35.746C155.682 35.988 156.042 36.031 156.251 35.898C156.499 35.739 156.52 35.454 156.403 35.211Z" fill="#F48C7F"/>
<path d="M161.695 34.877C161.86 34.373 161.97 33.858 162.024 33.33C162.074 32.84 162.218 32.096 161.747 31.784C161.646 31.717 161.465 31.729 161.371 31.801C160.974 32.105 161.098 32.76 161.049 33.212C160.996 33.705 160.891 34.192 160.755 34.668C160.684 34.919 160.878 35.189 161.121 35.243C161.396 35.303 161.614 35.124 161.695 34.877Z" fill="#F48C7F"/>
<path d="M169.196 34.937C169.269 34.706 169.076 34.503 168.877 34.437C168.468 34.301 167.965 34.719 167.641 34.936C167.263 35.19 166.913 35.478 166.58 35.789C166.388 35.968 166.433 36.309 166.615 36.475C166.829 36.668 167.103 36.612 167.301 36.439C168.598 35.312 169.014 35.507 169.196 34.937Z" fill="#F48C7F"/>
<path d="M222.817 54.851L221.96 55.835L220.471 55.298L219.067 56.657L217.803 56.458L217.428 57.121L219.119 57.386L220.45 56.099L221.998 56.657L223.289 55.177L222.817 54.851Z" fill="#466EB6"/>
<path d="M94.0923 50.954C92.8656 52.672 93.9982 55.169 95.7684 55.974C97.7252 56.863 100.16 56.176 101.435 54.469C102.816 52.622 102.474 50.366 100.686 49.214C98.9456 48.092 96.9123 49.084 96.5584 50.999C96.3047 52.372 97.1381 53.383 97.85 53.35C98.4051 53.324 98.7213 52.676 98.2738 52.29C98.0944 52.136 97.8236 52.136 97.6314 52.234C97.2819 51.819 97.2946 50.782 98.0521 50.062C99.0195 49.144 100.465 49.839 101.061 50.832C101.82 52.095 101.227 53.616 100.206 54.533C99.1338 55.495 97.4552 55.804 96.1302 55.208C94.629 54.532 93.9533 52.739 94.6131 51.236C94.7689 50.882 94.312 50.646 94.0923 50.954Z" fill="#96D9C9"/>
<path d="M107.844 175.984C107.844 175.984 107.627 180.005 107.626 180.013C107.543 180.524 107.216 181.787 107.217 182.251C107.222 183.994 115.012 180.737 113.262 179.972C113.103 179.903 112.026 178.984 111.972 178.391C111.889 177.477 111.927 176.023 111.927 176.023L107.844 175.984Z" fill="#F7A491"/>
<path d="M113.242 179.956C113.242 179.956 111.413 180.497 110.475 180.634C109.538 180.772 108.298 179.655 107.636 179.961C106.907 180.298 106.868 184.141 106.868 184.141C106.868 184.141 116.47 184.83 118.925 184.112C120.028 183.79 116.989 181.182 113.242 179.956Z" fill="#184655"/>
<path d="M122.881 175.919C122.881 175.919 122.664 179.94 122.663 179.949C122.58 180.459 122.253 181.722 122.254 182.186C122.259 183.929 130.049 180.672 128.299 179.907C128.14 179.838 127.063 178.919 127.009 178.326C126.926 177.413 126.964 175.958 126.964 175.958L122.881 175.919Z" fill="#F7A491"/>
<path d="M128.279 179.891C128.279 179.891 126.45 180.432 125.512 180.57C124.575 180.707 123.335 179.59 122.673 179.896C121.944 180.233 121.905 184.076 121.905 184.076C121.905 184.076 131.507 184.765 133.962 184.047C135.065 183.725 132.026 181.117 128.279 179.891Z" fill="#184655"/>
<path d="M129.167 70.438C129.424 72.4 129.735 72.275 129.761 72.527C129.792 72.826 127.998 76.436 127.998 76.436C127.998 76.436 122.777 87.112 122.476 87.679L113.157 95.554L115.595 101.329C115.595 101.329 125.514 92.49 125.955 91.937C126.396 91.383 131.82 76.139 132.34 74.812C132.34 74.812 133.528 73.453 134.247 72.576C134.966 71.698 135.271 70.545 135.436 70.267C135.461 70.226 135.96 69.267 136.27 67.924C136.537 66.767 135.767 67.748 135.767 67.748C135.767 67.748 134.897 69.808 134.751 69.712C134.639 69.638 135.178 68.541 135.487 67.264C135.566 66.935 135.643 66.611 135.712 66.312C135.891 65.528 135.474 65.199 135.158 65.991C135.047 66.27 134.873 66.739 134.794 67.09C134.71 67.47 134.513 67.793 134.395 68.102C134.159 68.715 133.995 69.165 133.976 69.141C133.951 69.111 133.821 69.2 133.894 68.849C133.983 68.427 134.364 67.569 134.448 66.939C134.495 66.582 134.638 65.84 134.638 65.84C134.638 65.84 134.65 64.681 134.584 64.659C134.226 64.537 133.999 65.33 133.997 65.823C133.838 66.139 133.709 66.923 133.709 66.923C133.709 66.923 133.101 68.455 132.889 68.373C132.798 68.339 133.062 67.355 133.173 66.353C133.276 65.421 133.231 64.465 133.055 64.419C132.755 64.341 132.532 65.365 132.532 65.365C132.532 65.365 132.414 66.09 132.357 66.328C132.29 66.607 132.027 67.427 132.027 67.427C132.027 67.427 130.981 70.242 130.787 70.148C130.593 70.053 130.193 69.605 130.199 69.409C130.205 69.213 130.401 68.856 130.407 68.659C130.413 68.463 130.256 68.204 130.02 68.182C129.785 68.159 129.4 69.103 129.4 69.103C129.4 69.103 129.093 69.872 129.167 70.438Z" fill="#F8A492"/>
<path d="M82.1615 74.43C82.278 76.406 81.9494 76.341 81.971 76.594C81.9966 76.893 84.4382 80.1 84.4382 80.1C84.4382 80.1 91.5736 89.6 91.9763 90.099L102.61 96.074L101.302 102.207C101.302 102.207 89.8978 95.398 89.3604 94.938C88.8231 94.477 80.6281 80.529 79.868 79.324C79.868 79.324 78.4457 78.214 77.5746 77.488C76.7036 76.762 76.1874 75.687 75.9722 75.445C75.9406 75.409 75.2696 74.562 74.7128 73.302C74.2327 72.216 75.1735 73.034 75.1735 73.034C75.1735 73.034 76.4155 74.892 76.5409 74.771C76.6375 74.677 75.9011 73.702 75.3578 72.505C75.2183 72.198 75.0813 71.893 74.958 71.613C74.6339 70.877 74.9821 70.475 75.441 71.193C75.6031 71.447 75.8623 71.874 76.0052 72.205C76.1594 72.561 76.4137 72.841 76.5882 73.122C76.9347 73.68 77.1804 74.091 77.195 74.064C77.2138 74.03 77.3585 74.093 77.2202 73.762C77.0538 73.364 76.5177 72.594 76.3173 71.99C76.2038 71.648 75.9236 70.947 75.9236 70.947C75.9236 70.947 75.694 69.811 75.7547 69.776C76.0833 69.59 76.4549 70.325 76.5498 70.809C76.7655 71.089 77.0396 71.835 77.0396 71.835C77.0396 71.835 77.9249 73.225 78.118 73.105C78.2002 73.054 77.7563 72.138 77.4586 71.174C77.1822 70.278 77.0463 69.331 77.2113 69.253C77.4912 69.12 77.9021 70.083 77.9021 70.083C77.9021 70.083 78.1543 70.773 78.2552 70.995C78.3736 71.257 78.7864 72.013 78.7864 72.013C78.7864 72.013 80.3429 74.58 80.5157 74.451C80.6885 74.321 80.9973 73.806 80.9544 73.614C80.9117 73.423 80.6523 73.109 80.6096 72.917C80.5668 72.725 80.6723 72.441 80.8994 72.375C81.1264 72.309 81.6816 73.162 81.6816 73.162C81.6816 73.162 82.1279 73.86 82.1615 74.43Z" fill="#F8A492"/>
<path d="M109.949 124.816C109.949 124.816 121.848 152.723 122.293 155.24C122.618 157.077 122.266 177.993 122.266 177.993L127.853 177.88L129.743 153.98L122.301 123.878L109.949 124.816Z" fill="#B75742"/>
<path d="M104.761 126.154L110.237 157.182L106.78 177.971L113.143 177.944L118.074 155.583L118.688 131.1L116.087 123.232L104.761 126.154Z" fill="#F47458"/>
<path d="M120.081 89.228C120.081 89.228 121.495 95.476 122.479 96.447C122.479 96.447 117.496 99.786 117.731 101.1C117.966 102.414 123.34 126.97 123.34 126.97C123.34 126.97 112.446 132.67 105.658 131.788C105.658 131.788 100.465 103.814 99.1396 102.506C97.8138 101.197 93.7036 99.132 93.7036 99.132C93.7036 99.132 96.7547 93.26 96.7517 92.222C96.7517 92.222 104.045 95.559 105.279 96.777C106.513 97.995 108.892 96.435 109.465 96.19C109.465 96.19 119.207 89.764 120.081 89.228Z" fill="#466EB6"/>
<path d="M106.224 91.078L105.316 96.826C105.316 96.826 107.752 100.83 109.69 100.223C111.317 99.714 111.167 96.545 111.167 96.545C111.167 96.545 110.27 93.271 110.531 91.629C110.792 89.987 106.224 91.078 106.224 91.078Z" fill="#F7A491"/>
<path d="M110.531 91.629C110.792 89.9871 106.224 91.078 106.224 91.078L106.151 91.558C106.286 91.879 106.45 92.154 106.65 92.364C107.674 93.445 109.272 94.091 110.653 94.134C110.512 93.25 110.424 92.302 110.531 91.629Z" fill="#F47458"/>
<path d="M105.449 82.883C105.32 82.837 104.433 89.487 106.159 91.308C107.885 93.13 111.238 93.714 112.436 92.268C113.762 90.669 113.674 83.526 110.993 81.657C108.313 79.787 105.449 82.883 105.449 82.883Z" fill="#F7A491"/>
<path d="M105.594 79.224C104.655 79.338 103.018 80.636 101.707 82.797C100.095 85.453 102.141 88.698 104.031 90.13C105.922 91.563 105.887 93.23 105.887 93.23L106.196 92.365C106.414 91.712 106.502 91.02 106.426 90.337C106.381 89.927 106.29 89.483 106.117 89.119C105.661 88.159 107.087 87.514 107.485 86.712C107.791 86.095 107.802 84.685 108.285 83.664L108.863 82.884C108.863 82.884 110.502 83.018 111.508 82.134C114.397 79.596 109.964 76.271 105.594 79.224Z" fill="#F7CC7F"/>
<path d="M107.401 87.895C107.417 88.706 107.045 89.372 106.571 89.382C106.097 89.392 105.7 88.743 105.684 87.932C105.668 87.121 106.039 86.455 106.513 86.445C106.987 86.435 107.384 87.084 107.401 87.895Z" fill="#F7A491"/>
<path d="M206.94 77.741C204.076 76.19 200.618 76.81 198.654 79.357C196.923 78.828 194.975 79.035 193.429 79.928C190.38 81.688 188.508 86.618 190.98 89.296C191.582 92.051 192.684 94.227 195.424 94.262C197.042 97.236 202.081 98.105 204.996 95.316C207.539 96.12 210.259 94.665 212.025 92.644C212.442 92.167 212.795 91.417 212.954 91.317C212.956 91.316 219.514 90.11 218.918 83.757C218.295 77.108 211.385 72.52 206.94 77.741Z" fill="#13375B"/>
<path d="M181.885 157.255C182.035 160.132 182.577 162.718 182.657 163.025C182.696 163.172 183.166 163.755 183.209 163.906C182.499 167.294 180.158 169.049 178.018 170.237C178.657 168.567 179.849 166.711 179.774 166.31C179.655 165.672 179.242 162.778 178.061 159.05C179.717 159.077 180.427 158.118 181.885 157.255Z" fill="#F8A492"/>
<path d="M189.888 115.935L200.083 124.19C200.083 124.19 194.946 129.255 193.019 131.137C191.092 133.02 181.397 139.803 181.227 140.237C181.192 140.324 181.703 141.358 181.86 142.647C182.286 146.131 182.766 152.906 182.909 158.715C181.812 159.865 179.436 160.138 178.016 160.499C174.524 153.361 173.261 139.658 173.278 138.013C173.304 135.332 189.888 115.935 189.888 115.935Z" fill="#355389"/>
<path d="M219.626 133.894C219.226 134.151 216.086 138.063 214.743 140.238C213.705 139.153 213.179 138.03 211.942 137.172C213.362 135.81 216.29 132.417 216.663 131.533C217.547 129.435 218.094 129.224 218.094 129.224C218.094 129.224 224.591 133.381 224.908 134.189C225.225 134.998 221.234 132.865 219.626 133.894Z" fill="#F8A492"/>
<path d="M216.475 132C215.929 131.873 217.083 129.434 217.338 128.869C217.625 128.234 218.039 128.121 218.136 128.119C218.4 128.114 225.62 132.734 226.725 134.04C226.8 134.129 226.914 134.38 226.928 134.433C227.345 136.017 220.838 134.757 220.044 133.92C219.338 133.176 218.933 132.576 216.475 132Z" fill="#184655"/>
<path d="M187.67 118.321C187.67 118.321 197.37 114.212 197.372 114.211C197.336 114.227 197.417 114.595 197.429 114.621C198.872 117.911 202.26 117.811 203.836 123.147C205.082 127.366 204.387 141.493 204.387 141.493C204.387 141.493 208.587 138.431 212.995 135.165C213.397 134.867 216.552 138.376 216.552 138.376C210.551 148.431 201.271 152.305 200.096 151.841C196.084 150.256 190.124 123.283 190.134 123.286C189.36 121.671 187.67 118.321 187.67 118.321Z" fill="#466EB6"/>
<path d="M202.26 95.63C202.26 95.63 213.298 93.422 215.754 93.081C218.211 92.74 226.78 89.993 227.109 89.875C227.438 89.757 228.777 85.285 229.246 85.626C229.715 85.967 228.447 87.874 229.038 88.16C229.629 88.446 234.803 86.33 234.825 86.761C234.869 87.569 231.709 88.183 231.798 88.557C231.886 88.931 235.033 87.6 235.397 88.173C235.761 88.745 232.3 89.144 232.228 89.452C232.156 89.761 235.539 89.527 235.337 90.183C235.227 90.539 232.322 90.315 232.433 90.741C232.544 91.167 234.745 91.693 234.58 92.089C234.415 92.486 232.788 91.394 231.635 91.638C230.483 91.882 229.518 91.443 227.804 92.385C226.09 93.327 220.438 97.381 216.482 98.076C212.526 98.771 203.789 100.333 203.789 100.333L202.26 95.63Z" fill="#F8A492"/>
<path d="M189.539 94.442C189.539 94.442 185.36 83.99 184.304 81.746C183.248 79.502 180.87 70.824 180.789 70.484C180.707 70.143 183.722 66.58 183.181 66.373C182.639 66.166 181.734 68.27 181.172 67.931C180.61 67.592 179.557 62.102 179.183 62.319C178.483 62.724 179.694 65.705 179.332 65.836C178.97 65.966 178.367 62.603 177.688 62.611C177.01 62.619 178.567 65.736 178.347 65.965C178.128 66.193 176.476 63.232 176.038 63.759C175.8 64.046 177.573 66.357 177.156 66.497C176.739 66.637 175.096 65.08 174.854 65.435C174.611 65.79 176.415 66.556 176.84 67.655C177.265 68.753 178.16 69.322 178.307 71.272C178.454 73.223 178.144 80.171 179.722 83.864C181.3 87.558 184.764 95.729 184.764 95.729L189.539 94.442Z" fill="#F8A492"/>
<path d="M186.208 106.992C186.074 105.051 185.865 99.815 185.955 99.173C185.413 97.153 183.394 94.146 182.973 93.298C182.973 93.298 185.783 90.035 187.844 90.083C187.844 90.083 190.007 92.996 191.625 93.899C191.649 93.893 192.198 94.162 192.441 94.162C194.012 94.166 199.502 94.045 200.523 94.375L199.857 103.232C199.556 103.737 199.099 113.924 198.484 114.757C197.869 115.59 188.997 119.322 187.542 118.323C187.484 118.283 186.48 110.916 186.208 106.992Z" fill="#F47458"/>
<path d="M197.723 94.485C197.97 94.364 198.55 94.234 199.393 94.227C201.883 94.208 206.076 94.145 206.076 94.145C206.076 94.145 207.048 99.486 206.208 100.76C206.208 100.76 199.648 101.715 199.829 102.278L197.723 94.485Z" fill="#F47458"/>
<path d="M196.053 90.933C196.053 90.933 195.454 94.002 195.556 95.216C195.659 96.43 195.073 100.333 192.616 100.322C190.16 100.311 192.198 95.348 192.441 94.162C192.684 92.976 192.775 89.298 192.775 89.298L196.053 90.933Z" fill="#F8A492"/>
<path d="M192.706 91.143C192.754 90.137 192.775 89.2979 192.775 89.2979L196.053 90.933C196.053 90.933 195.931 91.561 195.806 92.361C194.361 92.649 193.322 92.081 192.706 91.143Z" fill="#F47458"/>
<path d="M197.34 82.459C197.34 82.459 198.602 83.208 199.05 84.807C199.499 86.407 198.931 90.517 195.642 91.478C192.353 92.44 190.965 89.167 191.665 86.626C192.365 84.084 193.865 80.872 197.34 82.459Z" fill="#F8A492"/>
<path d="M191.264 85.634C191.322 86.319 191.678 86.845 192.06 86.81C192.442 86.775 192.705 86.191 192.647 85.506C192.589 84.821 192.233 84.294 191.851 84.33C191.47 84.365 191.207 84.949 191.264 85.634Z" fill="#F8A492"/>
<path d="M182.672 163.112C182.944 162.6 184.805 164.597 185.252 165.011C185.754 165.477 185.74 165.924 185.714 166.022C185.646 166.281 179.529 172.366 177.87 173.098C177.713 173.168 177.406 173.129 177.32 173.08C176.505 172.62 178.588 167.249 179.849 166.302C180.664 165.69 181.448 165.414 182.672 163.112Z" fill="#184655"/>
<path d="M196.957 82.248C196.957 82.248 197.507 86.845 198.92 87.687C200.332 88.529 199.717 90.56 199.717 90.56C199.717 90.56 201.052 85.844 199.944 84.314C198.835 82.784 196.957 82.248 196.957 82.248Z" fill="#13375B"/>
<path d="M198.072 88.338C197.681 88.932 197.675 89.638 198.06 89.914C198.444 90.19 199.073 89.931 199.463 89.337C199.854 88.742 199.86 88.037 199.476 87.761C199.091 87.485 198.463 87.744 198.072 88.338Z" fill="#F8A492"/>
</svg>
