<svg width="15" height="15" viewBox="0 0 15 15" fill="none" xmlns="http://www.w3.org/2000/svg">
<g clip-path="url(#clip0_1727_8454)">
<path d="M7.56299 13.8368C7.56299 13.8368 12.813 10.3368 12.813 6.25342C12.813 4.86103 12.2599 3.52567 11.2753 2.54111C10.2907 1.55654 8.95537 1.00342 7.56299 1.00342C6.1706 1.00342 4.83524 1.55654 3.85068 2.54111C2.86611 3.52567 2.31299 4.86103 2.31299 6.25342C2.31299 10.3368 7.56299 13.8368 7.56299 13.8368Z" stroke="#828282" stroke-linecap="round" stroke-linejoin="round"/>
<path d="M7.56299 8.00342C8.52949 8.00342 9.31299 7.21992 9.31299 6.25342C9.31299 5.28692 8.52949 4.50342 7.56299 4.50342C6.59649 4.50342 5.81299 5.28692 5.81299 6.25342C5.81299 7.21992 6.59649 8.00342 7.56299 8.00342Z" stroke="#828282" stroke-linecap="round" stroke-linejoin="round"/>
</g>
<defs>
<clipPath id="clip0_1727_8454">
<rect width="14" height="14" fill="white" transform="translate(0.562988 0.419922)"/>
</clipPath>
</defs>
</svg>
