<svg width="25" height="25" viewBox="0 0 25 25" fill="none" xmlns="http://www.w3.org/2000/svg">
<path d="M15.3547 21.2051V16.2051C15.3547 15.6528 14.907 15.2051 14.3547 15.2051H11.3547C10.8025 15.2051 10.3547 15.6528 10.3547 16.2051V21.2051" stroke="#828282" stroke-linecap="round" stroke-linejoin="round"/>
<path d="M5.85474 11.2051V17.2051C5.85474 19.0907 5.85474 20.0335 6.44052 20.6193C7.02631 21.2051 7.96912 21.2051 9.85474 21.2051H15.8547C17.7404 21.2051 18.6832 21.2051 19.2689 20.6193C19.8547 20.0335 19.8547 19.0907 19.8547 17.2051V11.2051" stroke="#828282"/>
<path d="M5.476 4.72001C5.65789 3.99245 5.74884 3.62867 6.0201 3.41687C6.29136 3.20508 6.66634 3.20508 7.41629 3.20508H18.2932C19.0431 3.20508 19.4181 3.20508 19.6894 3.41687C19.9606 3.62867 20.0516 3.99245 20.2335 4.72001L21.4371 9.53446C21.5339 9.92183 21.5823 10.1155 21.5717 10.2728C21.544 10.6808 21.2707 11.0307 20.8817 11.1566C20.7316 11.2051 20.5274 11.2051 20.1188 11.2051V11.2051C19.5857 11.2051 19.3191 11.2051 19.0952 11.1529C18.468 11.0068 17.9495 10.5676 17.7022 9.97289C17.614 9.76063 17.5712 9.50363 17.4855 8.98965V8.98965C17.4615 8.84584 17.4495 8.77394 17.436 8.75502C17.3961 8.69947 17.3134 8.69947 17.2735 8.75502C17.2599 8.77394 17.2479 8.84584 17.224 8.98965L17.1424 9.47889C17.1338 9.53075 17.1295 9.55669 17.1251 9.5794C16.9487 10.5056 16.1493 11.1827 15.2067 11.2045C15.1836 11.2051 15.1573 11.2051 15.1047 11.2051V11.2051C15.0522 11.2051 15.0259 11.2051 15.0027 11.2045C14.0602 11.1827 13.2608 10.5056 13.0843 9.5794C13.08 9.55669 13.0757 9.53075 13.067 9.47889L12.9855 8.98965C12.9615 8.84584 12.9495 8.77394 12.936 8.75502C12.8961 8.69947 12.8134 8.69947 12.7735 8.75502C12.7599 8.77394 12.7479 8.84584 12.724 8.98965L12.6424 9.47889C12.6338 9.53075 12.6295 9.55669 12.6251 9.5794C12.4487 10.5056 11.6493 11.1827 10.7067 11.2045C10.6836 11.2051 10.6573 11.2051 10.6047 11.2051V11.2051C10.5522 11.2051 10.5259 11.2051 10.5027 11.2045C9.56015 11.1827 8.7608 10.5056 8.58433 9.5794C8.58 9.55669 8.57568 9.53075 8.56704 9.47889L8.4855 8.98965C8.46153 8.84584 8.44955 8.77394 8.43596 8.75502C8.39606 8.69947 8.31342 8.69947 8.27352 8.75502C8.25993 8.77394 8.24794 8.84584 8.22397 8.98965V8.98965C8.13831 9.50363 8.09548 9.76063 8.00723 9.97289C7.75998 10.5676 7.24148 11.0068 6.61425 11.1529C6.39036 11.2051 6.12379 11.2051 5.59065 11.2051V11.2051C5.1821 11.2051 4.97783 11.2051 4.8278 11.1566C4.43877 11.0307 4.16552 10.6808 4.13781 10.2728C4.12713 10.1155 4.17555 9.92183 4.27239 9.53446L5.476 4.72001Z" stroke="#828282"/>
</svg>
