<svg width="24" height="24" viewBox="0 0 24 24" fill="none" xmlns="http://www.w3.org/2000/svg">
<path d="M19 17V12.7596C19 11.4019 19 10.723 18.7255 10.1262C18.4511 9.52949 17.9356 9.08769 16.9047 8.20407L15.9047 7.34693C14.0414 5.7498 13.1098 4.95123 12 4.95123C10.8902 4.95123 9.95857 5.7498 8.09525 7.34693L7.09525 8.20407C6.06437 9.08769 5.54892 9.52949 5.27446 10.1262C5 10.723 5 11.4019 5 12.7596V17C5 18.8856 5 19.8284 5.58579 20.4142C6.17157 21 7.11438 21 9 21H9.5V16C9.5 15.4477 9.94772 15 10.5 15H13.5C14.0523 15 14.5 15.4477 14.5 16V21H15C16.8856 21 17.8284 21 18.4142 20.4142C19 19.8284 19 18.8856 19 17Z" fill="#154387" stroke="#154387"/>
</svg>
