<svg width="24" height="24" viewBox="0 0 24 24" fill="none" xmlns="http://www.w3.org/2000/svg">
<path d="M19.5154 18.4616C19.5641 18.549 19.561 18.6367 19.5172 18.7194C19.4702 18.8079 19.3747 18.8884 19.2429 18.9159C14.2633 19.9537 9.12333 19.9537 4.14381 18.9159C4.01197 18.8884 3.91645 18.8079 3.8695 18.7193C3.82566 18.6367 3.82261 18.549 3.87129 18.4615C4.42891 17.46 5.31611 16.565 6.47072 15.8759C7.9587 14.9878 9.79466 14.5 11.6933 14.5C13.592 14.5 15.428 14.9878 16.9159 15.8759C18.0706 16.565 18.9578 17.46 19.5154 18.4616Z" fill="#154387" stroke="#154387" stroke-linecap="round"/>
<circle cx="11.6934" cy="8" r="4.5" fill="#154387" stroke="#154387" stroke-linecap="round"/>
</svg>
