<svg width="25" height="25" viewBox="0 0 25 25" fill="none" xmlns="http://www.w3.org/2000/svg">
<path fill-rule="evenodd" clip-rule="evenodd" d="M18.0758 11.5867L19.8718 9.79071C20.4171 9.24546 20.6897 8.97284 20.8355 8.67874C21.1127 8.11919 21.1127 7.46224 20.8355 6.90268C20.6897 6.60859 20.4171 6.33596 19.8718 5.79071C19.3266 5.24546 19.054 4.97284 18.7599 4.8271C18.2003 4.54982 17.5434 4.54982 16.9838 4.8271C16.6897 4.97284 16.4171 5.24546 15.8718 5.79071L14.0532 7.60937C15.017 9.25997 16.4032 10.6355 18.0758 11.5867ZM12.5987 9.06383L5.72822 15.9343C5.30316 16.3594 5.09063 16.5719 4.9509 16.833C4.81116 17.0941 4.75222 17.3888 4.63433 17.9783L4.01893 21.0553C3.95241 21.3879 3.91915 21.5542 4.01375 21.6488C4.10836 21.7434 4.27467 21.7101 4.60728 21.6436L7.68426 21.0282C8.27371 20.9103 8.56844 20.8514 8.82953 20.7117C9.09063 20.5719 9.30316 20.3594 9.72822 19.9343L16.6176 13.0449C14.996 12.0293 13.6243 10.667 12.5987 9.06383Z" fill="black"/>
</svg>
